<?xml version="1.0" encoding="utf-8"?>
<!-- Generator: Adobe Illustrator 22.0.1, SVG Export Plug-In . SVG Version: 6.00 Build 0)  -->
<svg version="1.1" id="Layer_1" xmlns="http://www.w3.org/2000/svg" xmlns:xlink="http://www.w3.org/1999/xlink" x="0px" y="0px"
	 viewBox="0 0 900 300" style="enable-background:new 0 0 900 300;" xml:space="preserve">
<style type="text/css">
	.st0{fill:#FFFFFF;}
	.st1{filter:url(#Adobe_OpacityMaskFilter);}
	.st2{mask:url(#b_1_);}
	.st3{opacity:0.4;}
	.st4{fill:none;stroke:#D7D7DB;stroke-width:3.331;stroke-linecap:round;stroke-linejoin:round;}
	.st5{fill:none;stroke:#D7D7DB;stroke-width:1.11;stroke-linecap:square;}
	.st6{fill:none;stroke:#D7D7DB;stroke-width:2.22;stroke-linecap:round;stroke-linejoin:round;}
	.st7{fill:none;stroke:#D7D7DB;stroke-width:5.181;stroke-linecap:round;stroke-linejoin:round;}
	.st8{fill:none;stroke:#D7D7DB;stroke-width:1.727;stroke-linecap:square;}
	.st9{fill:none;stroke:#D7D7DB;stroke-width:3.454;stroke-linecap:round;stroke-linejoin:round;}
	.st10{opacity:0.38;}
	.st11{fill:none;stroke:#FFFFFF;stroke-width:2.176;stroke-linecap:round;stroke-linejoin:round;}
	.st12{fill:none;stroke:#FFFFFF;stroke-width:0.725;stroke-linecap:square;}
	.st13{fill:none;stroke:#FFFFFF;stroke-width:1.451;stroke-linecap:round;stroke-linejoin:round;}
	.st14{fill:none;stroke:#D7D7DB;stroke-width:6.217;stroke-linecap:round;stroke-linejoin:round;}
	.st15{fill:#D7D7DB;}
	.st16{fill:none;stroke:#FFFFFF;stroke-width:2.072;}
	.st17{fill:none;stroke:#D7D7DB;stroke-width:4.145;stroke-linecap:round;stroke-linejoin:round;}
	.st18{fill:none;stroke:#D7D7DB;stroke-width:3.279;stroke-linecap:round;stroke-linejoin:round;}
	.st19{fill:none;stroke:#FFFFFF;stroke-width:1.093;}
	.st20{fill:none;stroke:#D7D7DB;stroke-width:2.186;stroke-linecap:round;stroke-linejoin:round;}
	.st21{fill:none;stroke:#D7D7DB;stroke-width:5.311;stroke-linecap:round;stroke-linejoin:round;}
	.st22{fill:none;stroke:#FFFFFF;stroke-width:1.77;}
	.st23{fill:none;stroke:#D7D7DB;stroke-width:3.541;stroke-linecap:round;stroke-linejoin:round;}
	.st24{opacity:0.615;}
	
		.st25{opacity:0.4;fill:none;stroke:#D7D7DB;stroke-width:2.664;stroke-linecap:round;stroke-linejoin:round;enable-background:new    ;}
	.st26{fill:none;stroke:#D7D7DB;stroke-width:1.776;stroke-linecap:round;stroke-linejoin:round;}
	.st27{fill:none;stroke:#D7D7DB;stroke-width:5.173;stroke-linecap:round;stroke-linejoin:round;}
	.st28{fill:none;stroke:#D7D7DB;stroke-width:6.405;stroke-linecap:round;stroke-linejoin:round;}
	.st29{fill:none;stroke:#D7D7DB;stroke-width:4.27;stroke-linecap:round;stroke-linejoin:round;}
	.st30{enable-background:new    ;}
	.st31{fill:#D7D7D7;}
</style>
<title>File transfer_homepage Copy</title>
<g transform="translate(1)">
	<g>
		<path id="a_1_" class="st0" d="M0,0h900v299.8H0V0z"/>
	</g>
	<defs>
		<filter id="Adobe_OpacityMaskFilter" filterUnits="userSpaceOnUse" x="1.1" y="-52.1" width="897" height="307.3">
			<feColorMatrix  type="matrix" values="1 0 0 0 0  0 1 0 0 0  0 0 1 0 0  0 0 0 1 0"/>
		</filter>
	</defs>
	<mask maskUnits="userSpaceOnUse" x="1.1" y="-52.1" width="897" height="307.3" id="b_1_">
		<g class="st1">
			<path id="a_2_" class="st0" d="M0,0h900v299.8H0V0z"/>
		</g>
	</mask>
	<g class="st2">
		<g class="st3">
			<path class="st4" d="M205.7,56.4l-30.5-7c-3.4-0.8-5.5-4.1-4.7-7.5l9.8-42.3c0.8-3.3,4.1-5.4,7.5-4.6l18.3,4.2l14.1,22.3l-7,30.2
				C212.4,55.1,209.1,57.1,205.7,56.4L205.7,56.4z"/>
			<path class="st5" d="M186.5,25l19.7,4.6 M184.7,32.6l19.7,4.6 M183,40.2l19.7,4.6"/>
			<path class="st6" d="M204.6,4.7l-3.1,13.6l13.7,3.2"/>
		</g>
		<g class="st3">
			<path class="st7" d="M31,234.8L5.2,193.4c-2.8-4.6-1.5-10.6,3-13.4l57.1-35.7c4.5-2.8,10.5-1.4,13.3,3.2l15.5,24.8l-8.9,40.1
				L44.4,238C39.9,240.8,33.9,239.4,31,234.8L31,234.8z"/>
			<path class="st8" d="M44.2,179.2L61,206 M34,185.6l16.7,26.8 M23.7,192l16.7,26.8"/>
			<path class="st9" d="M86.4,176.8l-18.4,11.5l11.6,18.6"/>
		</g>
		<g class="st10">
			<path class="st11" d="M254.1,183.1l-16.2-12.2c-1.8-1.3-2.2-3.9-0.8-5.7l17.1-22.6c1.3-1.8,3.9-2.1,5.7-0.8l9.7,7.3l2.4,17
				l-12.2,16.2C258.4,184.1,255.8,184.4,254.1,183.1L254.1,183.1z"/>
			<path class="st12" d="M251,159.3l10.5,7.9 M247.9,163.4l10.5,7.9 M244.9,167.5l10.5,7.9"/>
			<path class="st13" d="M267.1,152l-5.5,7.3l7.3,5.5"/>
		</g>
		<g transform="rotate(-23 49.35 -13.88)" class="st3">
			<path class="st14" d="M70.3,103.6l-58.6,0C5.3,103.6,0,98.4,0,92.1l0-80.6C0,5.2,5.3,0,11.7,0l35.1,0L82,34.5l0,57.6
				C82,98.4,76.7,103.6,70.3,103.6z"/>
			<g>
				<path id="c" class="st15" d="M9.7,90.3l15.7-35.6c0.5-1,1.7-1.5,2.7-1.1c0.4,0.2,0.7,0.5,1,0.9l11.6,20c0.5,0.8,1.5,1.2,2.4,0.9
					l14.4-4.6c0.9-0.3,1.9,0.1,2.4,0.8l11.9,18.3c0.6,1,0.3,2.2-0.6,2.9c-0.3,0.2-0.7,0.3-1.1,0.3l-58.3,0c-1.1,0-2.1-0.9-2.1-2.1
					C9.5,90.9,9.5,90.6,9.7,90.3L9.7,90.3z"/>
			</g>
			<path class="st16" d="M10.6,90.8c-0.1,0.1-0.1,0.3-0.1,0.4c0,0.6,0.5,1,1,1l58.3,0c0.2,0,0.4-0.1,0.6-0.2c0.5-0.3,0.6-1,0.3-1.4
				L58.9,72.3c-0.3-0.4-0.7-0.6-1.2-0.4l-14.4,4.6c-1.4,0.4-2.9-0.1-3.6-1.4L28.1,55c-0.1-0.2-0.3-0.3-0.5-0.4
				c-0.5-0.2-1.1,0-1.4,0.5L10.6,90.8z"/>
			
				<ellipse transform="matrix(-1 2.702795e-06 -2.702795e-06 -1 109.3122 111.9078)" class="st15" cx="54.7" cy="56" rx="8.4" ry="8.3"/>
			<path class="st17" d="M46.4,10.5l0,25.9l26.4,0"/>
		</g>
		<g transform="rotate(-31 277.133 -942.34)" class="st3">
			<path class="st18" d="M36.6,54.7l-30.5,0c-3.4,0-6.1-2.7-6.1-6.1L0,6.1C0,2.7,2.7,0,6.1,0l18.3,0l18.3,18.2l0,30.4
				C42.7,51.9,40,54.7,36.6,54.7z"/>
			<g>
				<path id="d" class="st15" d="M5,47.7l8.2-18.8c0.2-0.6,0.9-0.8,1.4-0.6c0.2,0.1,0.4,0.3,0.5,0.5l6,10.5c0.3,0.5,0.8,0.7,1.3,0.5
					l7.5-2.4c0.5-0.2,1,0,1.3,0.5l6.2,9.7c0.3,0.5,0.2,1.2-0.3,1.5c-0.2,0.1-0.4,0.2-0.6,0.2L6,49.2c-0.6,0-1.1-0.5-1.1-1.1
					C4.9,47.9,5,47.8,5,47.7L5,47.7z"/>
			</g>
			<path class="st19" d="M5.5,47.9c0,0.1,0,0.1,0,0.2c0,0.3,0.2,0.5,0.5,0.5l30.3,0c0.1,0,0.2,0,0.3-0.1c0.3-0.2,0.3-0.5,0.2-0.8
				l-6.2-9.7c-0.1-0.2-0.4-0.3-0.6-0.2l-7.5,2.4c-0.7,0.2-1.5-0.1-1.9-0.7l-6-10.5c-0.1-0.1-0.1-0.2-0.3-0.2c-0.3-0.1-0.6,0-0.7,0.3
				L5.5,47.9L5.5,47.9z"/>
			
				<ellipse transform="matrix(-1 -3.159123e-05 3.159123e-05 -1 56.9331 59.0289)" class="st15" cx="28.5" cy="29.5" rx="4.4" ry="4.4"/>
			<path class="st20" d="M24.2,5.6v13.7l13.7,0"/>
		</g>
		<g transform="rotate(-47 619.44 -808.07)" class="st3">
			<path class="st21" d="M58.6,88.8l-48.8,0c-5.4,0-9.8-4.4-9.8-9.9L0,9.9C0,4.4,4.4,0,9.8,0L39,0l29.3,29.6l0,49.3
				C68.3,84.4,63.9,88.8,58.6,88.8L58.6,88.8z"/>
			<g>
				<path id="e" class="st15" d="M8,77.5l13-30.5c0.4-0.9,1.4-1.3,2.3-0.9c0.4,0.2,0.7,0.4,0.8,0.8l9.6,17.1
					c0.4,0.7,1.3,1.1,2.1,0.8l11.9-3.9c0.8-0.3,1.6,0.1,2.1,0.7l9.9,15.7c0.5,0.8,0.3,1.9-0.6,2.4c-0.3,0.2-0.6,0.3-0.9,0.3l-48.5,0
					c-1,0-1.8-0.8-1.8-1.8C7.9,77.9,7.9,77.7,8,77.5z"/>
			</g>
			<path class="st22" d="M8.9,77.8c0,0.1-0.1,0.2-0.1,0.3c0,0.5,0.4,0.9,0.9,0.9l48.5,0c0.2,0,0.3,0,0.5-0.1
				c0.4-0.3,0.5-0.8,0.3-1.2L49.1,62c-0.2-0.3-0.6-0.5-1-0.4l-11.9,3.9C35,66,33.6,65.4,33,64.3l-9.6-17.1c-0.1-0.2-0.2-0.3-0.4-0.4
				c-0.5-0.2-1,0-1.2,0.5L8.9,77.8z"/>
			<ellipse transform="matrix(-1 2.058572e-06 -2.058572e-06 -1 91.0941 95.922)" class="st15" cx="45.5" cy="48" rx="7" ry="7.1"/>
			<path class="st23" d="M38.7,9l0,22.2l22,0"/>
		</g>
		<g class="st24">
			<path class="st25" d="M349.3,30.4l-24.1,6c-2.6,0.7-5.4-1-6-3.6l-8.4-33.5c-0.7-2.6,1-5.3,3.6-6l14.4-3.6l18,10.8l6,23.9
				C353.6,27.1,352,29.8,349.3,30.4L349.3,30.4z"/>
			<path class="st15" d="M338.4,8.6l-0.3,0.1c-0.1-0.1-0.1-0.1-0.2-0.2l0,0.3l-10.6,4.3c0,0-0.1-0.1-0.1-0.1c0,0.1,0,0.1,0,0.2
				l-0.1,0.1l0.5,2.1c0.4,1.9,0.8,3.8,1.3,5.8c0.4,1.7,0.9,3.4,1.4,5.1c-0.7-0.4-1.7-0.6-2.8-0.5c-1.8,0.2-3.2,1.3-3.1,2.3
				c0.1,1,1.7,1.7,3.5,1.5c1.8-0.2,3.2-1.3,3.1-2.3c0,0,0-0.1,0-0.1c0,0,0-0.1,0-0.1c-0.4-2-0.8-4-1.4-6c-0.5-2-0.9-3.9-1.5-5.8
				l10.1-4.1c0.4,1.9,0.8,3.8,1.3,5.7c0.4,1.7,0.9,3.4,1.4,5.1c-0.7-0.4-1.7-0.6-2.8-0.5c-1.8,0.2-3.2,1.3-3.1,2.3s1.7,1.7,3.5,1.5
				c1.8-0.2,3.2-1.3,3.1-2.3c0,0,0-0.1,0-0.1c0,0,0-0.1,0-0.1c-0.4-2-0.8-4-1.4-6c-0.5-1.9-1-3.8-1.6-5.7L338.4,8.6L338.4,8.6z"/>
			<path class="st26" d="M329.9-5.8l2.7,10.8l10.8-2.7"/>
		</g>
		<g class="st3">
			<path class="st27" d="M693.6,47l-45.6-14.8c-5-1.6-7.8-7-6.2-12L662.2-43c1.6-5,7-7.7,12.1-6.1l27.4,8.9l18.6,36L705.6,41
				C704,45.9,698.6,48.6,693.6,47L693.6,47z"/>
			<path class="st15" d="M697.9,0.3l-0.6-0.1c0-0.2-0.1-0.3-0.1-0.5L697,0.2l-21.9-3.9c0-0.1-0.1-0.2-0.1-0.4L675-3.7l-0.3,0
				l-1.3,3.9c-1.2,3.5-2.5,7.1-3.7,10.7c-1.1,3.3-2,6.5-2.9,9.7c-0.7-1.3-2.2-2.7-4.1-3.6c-3.2-1.5-6.6-1.2-7.4,0.6
				c-0.9,1.8,1.1,4.5,4.3,6s6.6,1.2,7.4-0.6c0-0.1,0.1-0.1,0.1-0.2c0.1,0,0.1-0.1,0.2-0.1c1.4-3.7,2.7-7.4,4-11.2
				c1.2-3.7,2.6-7.3,3.6-11L695.6,4c-1.3,3.4-2.5,7-3.7,10.6c-1.1,3.3-2,6.5-2.9,9.7c-0.7-1.3-2.2-2.7-4.1-3.6
				c-3.2-1.5-6.6-1.2-7.4,0.6c-0.9,1.8,1.1,4.5,4.3,6c3.2,1.5,6.6,1.2,7.4-0.6c0-0.1,0.1-0.1,0.1-0.2c0.1,0,0.1-0.1,0.2-0.1
				c1.4-3.6,2.7-7.4,4-11.2c1.2-3.7,2.3-7.3,3.3-10.9L697.9,0.3z"/>
		</g>
		<g class="st3">
			<path class="st28" d="M808.3,104.9l-42.6-42.6c-4.7-4.7-4.7-12.3-0.1-16.9l58.9-58.9c4.6-4.6,12.2-4.6,16.9,0.1l25.5,25.5
				l0.3,50.8l-42,42C820.6,109.7,813,109.6,808.3,104.9L808.3,104.9z"/>
			<path class="st29" d="M858.9,19.6L840,38.5l19.2,19.2"/>
			<g class="st30">
				<path class="st15" d="M798.9,45.2c0.7,0.7,1.4,1,2.2,1.1c0.8,0.1,1.5-0.1,2.3-0.6s1.9-1.4,3.4-2.9c1.5-1.5,2.5-2.4,3-2.8
					c0.8-0.7,1.6-1.1,2.2-1.3c0.7-0.2,1.3-0.3,1.9-0.3c0.6,0,1.2,0.2,1.8,0.6c0.4,0.2,1,0.8,1.8,1.5l0.7,0.7l-2.1,2.1l-0.4-0.4
					c-0.9-0.9-1.7-1.4-2.3-1.3c-0.6,0-1.5,0.6-2.7,1.8c-2.3,2.3-3.8,3.7-4.5,4.2c-1.1,0.8-2.1,1.2-3,1.4c-0.9,0.1-2,0-3.2-0.4
					c0.6,1.4,0.7,2.7,0.3,4c-0.4,1.3-1.5,2.9-3.5,4.8c-1.7,1.7-2.7,2.8-3,3.1c-0.5,0.7-0.8,1.3-0.7,1.8c0,0.5,0.5,1.2,1.3,2l0.4,0.4
					l-2.1,2.1L792,66c-0.9-0.9-1.4-1.6-1.7-2.1c-0.4-0.8-0.5-1.6-0.4-2.4c0.1-0.8,0.4-1.6,1-2.5c0.6-0.8,1.7-2,3.3-3.6
					c1.6-1.6,2.6-2.8,3.1-3.5s0.7-1.5,0.6-2.3c-0.1-0.8-0.4-1.5-1.1-2.2L798.9,45.2z"/>
				<path class="st15" d="M821.6,68l-2.2,2.2c-0.7-0.7-1.4-1-2.2-1.1c-0.8-0.1-1.5,0.1-2.3,0.6c-0.7,0.5-1.9,1.4-3.3,2.9
					c-1.5,1.5-2.5,2.4-3,2.8c-0.8,0.7-1.6,1.1-2.2,1.4s-1.3,0.3-1.9,0.3s-1.2-0.2-1.8-0.6c-0.4-0.2-1-0.7-1.8-1.5l-0.7-0.7l2.1-2.1
					l0.4,0.4c0.9,0.9,1.7,1.4,2.3,1.3c0.6,0,1.5-0.6,2.7-1.8c2.2-2.2,3.7-3.6,4.3-4.1c1.1-0.8,2.2-1.3,3.2-1.5c1-0.2,2.1,0,3.2,0.4
					c-0.5-1.5-0.6-2.9-0.2-4.1s1.5-2.8,3.4-4.7c1.7-1.7,2.7-2.8,3-3.2c0.5-0.7,0.8-1.2,0.7-1.8c-0.1-0.5-0.5-1.2-1.3-2l-0.4-0.4
					l2.1-2.1l0.7,0.7c0.9,0.9,1.4,1.6,1.7,2.1c0.4,0.8,0.5,1.6,0.4,2.4c-0.1,0.8-0.4,1.7-1,2.5c-0.6,0.8-1.7,2-3.3,3.6
					c-1.6,1.6-2.6,2.8-3.1,3.5c-0.5,0.7-0.7,1.5-0.6,2.3C820.6,66.5,821,67.3,821.6,68z"/>
			</g>
		</g>
	</g>
</g>
<g class="st3">
	<path class="st31" d="M359.6,135.5v118.8c0,4.8-1.7,8.9-5.1,12.3c-3.4,3.4-7.5,5.2-12.3,5.3h-59.3c0,2.6,0.6,5.4,1.8,8.4
		c1.2,3,2.3,5.6,3.3,7.8c1,2.2,1.6,3.8,1.8,4.7c0,1.8-0.7,3.5-2,4.9c-1.3,1.4-2.9,2.2-4.9,2.2h-56c-2,0-3.6-0.7-4.9-2.2
		c-1.3-1.4-2-3.1-2.2-4.9c0-1,0.6-2.7,1.8-4.9c1.2-2.2,2.3-4.8,3.5-7.6c1.2-2.9,1.8-5.7,1.8-8.4h-59.5c-4.7,0-8.8-1.8-12.3-5.3
		c-3.5-3.5-5.2-7.6-5.1-12.3V135.5c0-4.8,1.7-8.9,5.1-12.3c3.4-3.4,7.5-5.1,12.3-5.1h174.8c4.8,0,8.9,1.7,12.3,5.1
		C357.9,126.6,359.6,130.7,359.6,135.5z M345.7,226.6v-91c0-0.9-0.3-1.7-1-2.3c-0.7-0.7-1.5-1-2.5-1.2H167.4c-0.9,0-1.7,0.4-2.3,1.2
		c-0.7,0.8-1,1.6-1.2,2.3v91c0,0.9,0.4,1.7,1.2,2.3c0.8,0.7,1.6,1,2.3,1h174.8c0.9,0,1.8-0.3,2.5-1
		C345.5,228.3,345.9,227.5,345.7,226.6z"/>
	<g>
		<path class="st31" d="M393,143.8c0.2,9.5,9.8,16.1,28.9,19.7h0.3c11,2,19.5,5.1,25.5,9.2c7.3,4.8,11,11.1,11,19
			c0,7.9-3.7,14.5-11.1,19.8c-7.4,5.3-16,8-26,8c-12.6-0.1-24.9-4.9-36.9-14.4c-1.5-1.3-1.7-2.8-0.4-4.4c0.6-0.7,1.3-1,2.1-1.1
			c0.9-0.1,1.6,0.1,2.3,0.7c10.8,8.7,21.7,13,32.9,12.9c8.8,0,16.1-2.2,22-6.6c5.7-4.1,8.6-9.1,8.6-14.9c0-10.7-10.4-18-31.3-21.9
			h-0.3c-22.6-4.2-33.9-12.8-33.9-25.9c0-7.4,3.4-13.6,10.2-18.6c6.8-5,14.9-7.4,24.4-7.4c4.1,0,8.2,0.7,12.4,2.1
			c4.1,1.4,7.4,2.7,9.7,4c2.3,1.3,5.2,3.1,8.9,5.5c1.7,1.1,2,2.6,0.9,4.4c-1.1,1.7-2.5,2-4.3,0.9c-3.4-2.2-6.2-3.9-8.4-5.2
			c-2.1-1.2-5-2.5-8.6-3.6c-3.6-1.2-7.1-1.8-10.5-1.8c-8,0-14.8,2-20.5,6C395.6,134,393,138.6,393,143.8z"/>
		<path class="st31" d="M468.3,245.3v-92.6c0-1,0.3-1.8,1-2.4c0.7-0.7,1.5-1,2.4-1c1,0,1.8,0.3,2.5,1c0.7,0.7,1.1,1.5,1.1,2.4v10.2
			c3.1-4.2,6.9-7.5,11.6-9.9c4.7-2.4,9.7-3.6,15-3.6c9.4,0,17.5,3.4,24,10.2c6.6,6.8,9.9,15,9.9,24.5c0,9.6-3.3,17.8-9.9,24.7
			c-6.6,6.9-14.6,10.3-24,10.3c-5.3,0-10.3-1.2-15-3.7c-4.7-2.5-8.5-5.8-11.6-10v40.1c0,1-0.4,1.8-1.1,2.4c-0.7,0.7-1.6,1-2.5,1
			c-1,0-1.8-0.3-2.4-1C468.7,247,468.3,246.2,468.3,245.3z M475.4,182.9v1.1c0,7.7,2.6,14.3,7.9,19.7c5.2,5.4,11.5,8.2,18.7,8.3
			c7.4-0.1,13.8-2.9,19-8.3c5.2-5.4,7.9-12,7.9-19.7c0-7.7-2.6-14.3-7.9-19.7c-5.2-5.4-11.5-8.1-18.7-8.1c-7.2,0-13.5,2.6-18.7,7.7
			C478.4,169.2,475.6,175.5,475.4,182.9z"/>
		<path class="st31" d="M603.9,150.3c0.7-0.7,1.5-1,2.4-1c1,0,1.8,0.3,2.4,1c0.7,0.7,1,1.5,1,2.4v63.2c0,1-0.3,1.8-1,2.4
			c-0.7,0.7-1.5,1-2.4,1c-1,0-1.8-0.3-2.4-1c-0.7-0.7-1-1.5-1-2.4v-10.4c-3.1,4.3-6.9,7.7-11.5,10.2c-4.6,2.5-9.6,3.7-14.8,3.7
			c-9.2,0-17-3.4-23.5-10.3c-6.5-6.9-9.7-15.1-9.7-24.8c0-9.6,3.2-17.9,9.7-24.8c6.5-6.9,14.3-10.3,23.5-10.3
			c5.2,0,10.2,1.2,14.8,3.7c4.6,2.5,8.5,5.8,11.5,10v-10.3C602.9,151.8,603.3,150.9,603.9,150.3z M550.3,184.3
			c0,7.8,2.6,14.5,7.8,20c5.2,5.5,11.4,8.2,18.6,8.2c7.2,0,13.4-2.7,18.5-8.2c5.2-5.5,7.7-12.1,7.7-20c0-7.8-2.6-14.5-7.7-20
			c-5.1-5.5-11.3-8.3-18.5-8.3c-7.2,0-13.4,2.8-18.6,8.3C552.9,169.8,550.3,176.5,550.3,184.3z"/>
		<path class="st31" d="M628.2,209.2c-7-6.8-10.5-15.1-10.5-24.9c0-9.8,3.5-18,10.5-24.8c7-6.8,15.1-10.2,24.3-10.2
			c9.2,0,17,2.6,23.5,7.7c0.8,0.5,1.2,1.2,1.3,2.1c0.1,1-0.2,1.8-0.9,2.6c-1.4,1.6-3,1.8-4.7,0.6c-5.2-4.2-11.6-6.3-19-6.3
			c-7.4,0-14,2.8-19.7,8.3c-5.7,5.5-8.5,12.2-8.5,20c0,7.8,2.8,14.5,8.5,20c5.7,5.5,12.2,8.2,19.6,8.2c7.4,0,13.8-2,19.1-6.2
			c1.7-1.2,3.3-1,4.8,0.7c1.5,1.7,1.2,3.3-0.8,4.9c-6.4,5-13.7,7.4-22,7.4C643.7,219.4,635.2,216,628.2,209.2z"/>
		<path class="st31" d="M750,181.9v0.6c0,1-0.3,1.7-1,2.3c-0.7,0.6-1.5,0.9-2.4,0.9h-57.5c0.4,7.6,3.2,14,8.4,19.2
			c5.2,5.1,11.5,7.7,18.7,7.7c4.7,0,9-1.1,13-3.4c4-2.3,7.2-5.4,9.6-9.3c1.1-1.9,2.7-2.3,4.6-1.1c1.9,1.3,2.3,3,1.1,4.9
			c-3.1,4.9-7.1,8.7-12.1,11.6c-5,2.9-10.4,4.3-16.2,4.3c-9.4,0-17.5-3.4-24.1-10.2c-6.6-6.8-9.9-15.1-9.9-24.8
			c0-9.7,3.3-18,9.9-24.8c6.6-6.9,14.5-10.3,23.7-10.3c9.2,0,17,3.1,23.4,9.4C745.7,164.9,749.2,172.6,750,181.9z M733.4,162.6
			c-5-4.3-10.7-6.4-17.2-6.4c-6.5,0-12.3,2.1-17.2,6.4c-5,4.2-8.1,9.7-9.4,16.4h53.1C741.4,172.3,738.4,166.9,733.4,162.6z"/>
	</g>
	<g>
		<path class="st31" d="M387,262.4c-0.4-0.4-0.6-0.9-0.6-1.6c0-0.6,0.2-1.1,0.6-1.5c0.4-0.4,1-0.6,1.6-0.6s1.2,0.2,1.6,0.6
			c0.4,0.4,0.6,0.9,0.6,1.5c0,0.6-0.2,1.2-0.6,1.6c-0.4,0.4-1,0.6-1.6,0.6S387.4,262.8,387,262.4z M387.4,288.2
			c-0.3-0.3-0.5-0.7-0.5-1.2v-17.8c0-0.5,0.2-0.9,0.5-1.2c0.3-0.3,0.7-0.4,1.2-0.4c0.5,0,0.9,0.1,1.2,0.4c0.3,0.3,0.5,0.7,0.5,1.2
			v17.8c0,0.6-0.2,1-0.5,1.3c-0.3,0.3-0.7,0.4-1.2,0.4C388.1,288.6,387.7,288.5,387.4,288.2z"/>
		<path class="st31" d="M411,275.5v11.4c0,0.5-0.1,0.9-0.4,1.2c-0.3,0.3-0.7,0.4-1.2,0.4c-0.5,0-1-0.1-1.3-0.4
			c-0.3-0.3-0.5-0.7-0.5-1.2v-11.2c0-1.9-0.4-3.3-1.1-4.2c-0.7-0.9-1.9-1.3-3.6-1.3c-1.9,0-3.4,0.6-4.5,1.7
			c-1.1,1.2-1.7,2.7-1.7,4.7v10.3c0,0.5-0.1,0.9-0.4,1.2c-0.3,0.3-0.7,0.4-1.2,0.4c-0.5,0-1-0.1-1.3-0.4c-0.3-0.3-0.5-0.7-0.5-1.2
			v-17.8c0-0.5,0.2-0.9,0.5-1.2c0.3-0.3,0.7-0.5,1.3-0.5c0.5,0,0.9,0.2,1.2,0.5c0.3,0.3,0.4,0.7,0.4,1.2v2.2
			c0.7-1.3,1.6-2.2,2.8-2.9c1.2-0.7,2.6-1,4.1-1C408.6,267.4,411,270.1,411,275.5z"/>
		<path class="st31" d="M425.7,287.3c0,0.5-0.2,0.8-0.5,1.1c-0.4,0.2-0.9,0.3-1.6,0.3l-1.1-0.1c-2.2-0.2-3.9-0.8-5-2
			c-1.1-1.2-1.6-3-1.6-5.4v-10.6h-2.8c-0.5,0-0.9-0.1-1.1-0.4c-0.3-0.2-0.4-0.6-0.4-0.9c0-0.4,0.1-0.8,0.4-1
			c0.3-0.3,0.6-0.4,1.1-0.4h2.8v-4.8c0-0.5,0.2-0.9,0.5-1.2c0.3-0.3,0.7-0.4,1.3-0.4c0.5,0,0.9,0.1,1.2,0.4c0.3,0.3,0.5,0.7,0.5,1.2
			v4.8h4.7c0.4,0,0.8,0.1,1.1,0.4c0.3,0.3,0.4,0.6,0.4,1c0,0.4-0.1,0.7-0.4,0.9c-0.3,0.2-0.6,0.4-1.1,0.4h-4.7v10.8
			c0,1.5,0.3,2.7,0.9,3.4c0.6,0.7,1.6,1.1,2.8,1.2l1.1,0.1C425.2,286,425.7,286.5,425.7,287.3z"/>
		<path class="st31" d="M444.1,284c0.2,0.3,0.3,0.6,0.3,1c0,0.7-0.5,1.3-1.5,1.9c-1,0.6-2.1,1-3.2,1.3c-1.1,0.3-2.2,0.4-3.3,0.4
			c-3.2,0-5.7-0.9-7.5-2.8c-1.8-1.9-2.8-4.5-2.8-7.8c0-2.1,0.4-4,1.2-5.6c0.8-1.6,2-2.9,3.4-3.8c1.5-0.9,3.2-1.3,5-1.3
			c2.7,0,4.8,0.9,6.4,2.6c1.6,1.7,2.4,4.1,2.4,7.1c0,0.6-0.1,1-0.3,1.2c-0.2,0.3-0.6,0.4-1.1,0.4h-13.6c0.3,4.8,2.5,7.3,6.9,7.3
			c1.1,0,2-0.1,2.8-0.4c0.8-0.3,1.6-0.7,2.5-1.2c0.7-0.4,1.2-0.6,1.5-0.6C443.6,283.7,443.9,283.8,444.1,284z M431.6,271.7
			c-1.1,1.1-1.7,2.7-1.9,4.8h11.9c-0.1-2.1-0.6-3.7-1.6-4.8c-1-1.1-2.4-1.7-4.1-1.7C434.1,270,432.7,270.6,431.6,271.7z"/>
		<path class="st31" d="M459,268.9c0,0.4-0.1,0.8-0.4,1.1c-0.3,0.3-0.7,0.4-1.3,0.5l-1.3,0.1c-1.9,0.2-3.3,0.8-4.2,2
			c-0.9,1.2-1.4,2.5-1.4,4.1v10.2c0,0.6-0.2,1-0.5,1.3c-0.3,0.3-0.7,0.4-1.2,0.4c-0.5,0-0.9-0.1-1.2-0.4c-0.3-0.3-0.5-0.7-0.5-1.2
			v-17.8c0-0.5,0.2-0.9,0.5-1.2c0.3-0.3,0.7-0.4,1.2-0.4c0.4,0,0.8,0.1,1.1,0.4c0.3,0.3,0.5,0.7,0.5,1.2v2.4
			c0.6-1.2,1.4-2.2,2.5-2.8c1.1-0.6,2.3-1,3.7-1.1l0.6,0C458.4,267.4,459,267.8,459,268.9z"/>
		<path class="st31" d="M477.1,275.5v11.5c0,0.5-0.1,0.9-0.4,1.2c-0.3,0.3-0.7,0.5-1.2,0.5c-0.5,0-0.9-0.2-1.2-0.5
			c-0.3-0.3-0.5-0.7-0.5-1.2v-2c-0.5,1.2-1.3,2.1-2.4,2.8c-1.1,0.7-2.4,1-3.8,1c-1.3,0-2.5-0.3-3.6-0.8c-1.1-0.5-2-1.3-2.6-2.2
			c-0.6-1-1-2-1-3.2c0-1.5,0.4-2.7,1.2-3.6c0.8-0.9,2.1-1.5,3.9-1.9c1.8-0.4,4.3-0.6,7.5-0.6h0.9v-1.4c0-1.7-0.3-2.9-1-3.7
			c-0.7-0.8-1.8-1.2-3.4-1.2c-1.9,0-3.9,0.5-5.8,1.6c-0.8,0.5-1.3,0.7-1.6,0.7c-0.3,0-0.6-0.1-0.8-0.4c-0.2-0.3-0.3-0.6-0.3-1
			c0-0.4,0.1-0.7,0.4-1c0.2-0.3,0.6-0.6,1.2-0.9c1-0.6,2.1-1,3.4-1.3c1.3-0.3,2.5-0.5,3.7-0.5C474.5,267.4,477.1,270.1,477.1,275.5z
			 M472.1,284.3c1.1-1.1,1.6-2.6,1.6-4.4v-1.2H473c-2.5,0-4.4,0.1-5.7,0.3c-1.3,0.2-2.2,0.6-2.8,1.1c-0.5,0.5-0.8,1.2-0.8,2.2
			c0,1.1,0.4,2,1.2,2.7c0.8,0.7,1.8,1.1,3,1.1C469.7,286,471,285.4,472.1,284.3z"/>
		<path class="st31" d="M483.3,287.4c-1.5-0.9-2.6-2.1-3.4-3.7c-0.8-1.6-1.2-3.5-1.2-5.6c0-2.1,0.4-4,1.2-5.6c0.8-1.6,2-2.9,3.5-3.8
			c1.5-0.9,3.2-1.3,5.1-1.3c1.1,0,2.1,0.1,3.2,0.4c1.1,0.3,2,0.7,2.8,1.3c0.5,0.3,0.9,0.7,1.1,1c0.2,0.3,0.3,0.7,0.3,1.1
			c0,0.4-0.1,0.7-0.3,1c-0.2,0.3-0.5,0.4-0.8,0.4c-0.2,0-0.4-0.1-0.6-0.2c-0.2-0.1-0.4-0.2-0.6-0.3c-0.2-0.1-0.3-0.2-0.3-0.2
			c-0.7-0.5-1.4-0.9-2.1-1.1c-0.7-0.3-1.5-0.4-2.4-0.4c-2.1,0-3.6,0.7-4.8,2.1c-1.1,1.4-1.7,3.3-1.7,5.8c0,2.5,0.6,4.4,1.7,5.7
			c1.1,1.3,2.7,2,4.8,2c1,0,1.8-0.1,2.5-0.4c0.7-0.3,1.4-0.7,2.1-1.1c0.3-0.2,0.6-0.4,0.9-0.5c0.3-0.1,0.5-0.2,0.7-0.2
			c0.3,0,0.6,0.1,0.8,0.4c0.2,0.3,0.3,0.6,0.3,1c0,0.4-0.1,0.7-0.3,1c-0.2,0.3-0.6,0.6-1.1,1c-0.8,0.5-1.7,1-2.8,1.3
			c-1.1,0.3-2.2,0.5-3.4,0.5C486.5,288.7,484.8,288.3,483.3,287.4z"/>
		<path class="st31" d="M511.2,287.3c0,0.5-0.2,0.8-0.5,1.1c-0.4,0.2-0.9,0.3-1.6,0.3l-1.1-0.1c-2.2-0.2-3.9-0.8-5-2
			c-1.1-1.2-1.6-3-1.6-5.4v-10.6h-2.8c-0.5,0-0.9-0.1-1.1-0.4c-0.3-0.2-0.4-0.6-0.4-0.9c0-0.4,0.1-0.8,0.4-1
			c0.3-0.3,0.6-0.4,1.1-0.4h2.8v-4.8c0-0.5,0.2-0.9,0.5-1.2c0.3-0.3,0.7-0.4,1.3-0.4c0.5,0,0.9,0.1,1.2,0.4c0.3,0.3,0.5,0.7,0.5,1.2
			v4.8h4.7c0.4,0,0.8,0.1,1.1,0.4c0.3,0.3,0.4,0.6,0.4,1c0,0.4-0.1,0.7-0.4,0.9c-0.3,0.2-0.6,0.4-1.1,0.4h-4.7v10.8
			c0,1.5,0.3,2.7,0.9,3.4c0.6,0.7,1.6,1.1,2.8,1.2l1.1,0.1C510.7,286,511.2,286.5,511.2,287.3z"/>
		<path class="st31" d="M512.9,262.4c-0.4-0.4-0.6-0.9-0.6-1.6c0-0.6,0.2-1.1,0.6-1.5c0.4-0.4,1-0.6,1.6-0.6c0.7,0,1.2,0.2,1.6,0.6
			c0.4,0.4,0.6,0.9,0.6,1.5c0,0.6-0.2,1.2-0.6,1.6c-0.4,0.4-1,0.6-1.6,0.6C513.9,263,513.4,262.8,512.9,262.4z M513.3,288.2
			c-0.3-0.3-0.5-0.7-0.5-1.2v-17.8c0-0.5,0.2-0.9,0.5-1.2c0.3-0.3,0.7-0.4,1.2-0.4c0.5,0,0.9,0.1,1.2,0.4c0.3,0.3,0.5,0.7,0.5,1.2
			v17.8c0,0.6-0.2,1-0.5,1.3c-0.3,0.3-0.7,0.4-1.2,0.4C514.1,288.6,513.7,288.5,513.3,288.2z"/>
		<path class="st31" d="M537.2,267.5c0.4,0,0.8,0.1,1.1,0.4c0.3,0.3,0.5,0.6,0.5,1.1c0,0.3-0.1,0.5-0.2,0.7l-8.2,17.7
			c-0.2,0.4-0.4,0.7-0.8,0.9c-0.3,0.2-0.7,0.3-1.1,0.3c-0.4,0-0.7-0.1-1.1-0.3c-0.3-0.2-0.6-0.5-0.8-0.9l-8.2-17.7
			c-0.1-0.2-0.2-0.4-0.2-0.6c0-0.4,0.2-0.8,0.6-1.1c0.4-0.3,0.8-0.5,1.2-0.5c0.3,0,0.6,0.1,0.8,0.3c0.3,0.2,0.5,0.4,0.6,0.7l7,15.8
			l7-15.7C536.1,267.8,536.5,267.5,537.2,267.5z"/>
		<path class="st31" d="M556.5,284c0.2,0.3,0.3,0.6,0.3,1c0,0.7-0.5,1.3-1.5,1.9c-1,0.6-2.1,1-3.2,1.3c-1.1,0.3-2.2,0.4-3.3,0.4
			c-3.2,0-5.7-0.9-7.5-2.8c-1.8-1.9-2.8-4.5-2.8-7.8c0-2.1,0.4-4,1.2-5.6c0.8-1.6,2-2.9,3.4-3.8c1.5-0.9,3.2-1.3,5-1.3
			c2.7,0,4.8,0.9,6.4,2.6c1.6,1.7,2.4,4.1,2.4,7.1c0,0.6-0.1,1-0.3,1.2c-0.2,0.3-0.6,0.4-1.1,0.4H542c0.3,4.8,2.5,7.3,6.9,7.3
			c1.1,0,2-0.1,2.8-0.4c0.8-0.3,1.6-0.7,2.5-1.2c0.7-0.4,1.2-0.6,1.5-0.6C556,283.7,556.3,283.8,556.5,284z M544,271.7
			c-1.1,1.1-1.7,2.7-1.9,4.8H554c-0.1-2.1-0.6-3.7-1.6-4.8c-1-1.1-2.4-1.7-4.1-1.7C546.6,270,545.1,270.6,544,271.7z"/>
		<path class="st31" d="M602.6,275.5v11.4c0,0.5-0.2,0.9-0.5,1.2c-0.3,0.3-0.7,0.4-1.2,0.4c-0.5,0-0.9-0.1-1.2-0.4
			c-0.3-0.3-0.5-0.7-0.5-1.2v-11.3c0-1.9-0.3-3.2-1-4.1c-0.7-0.8-1.7-1.3-3.2-1.3c-1.7,0-3.1,0.6-4,1.7c-1,1.2-1.5,2.7-1.5,4.7v10.3
			c0,0.5-0.2,0.9-0.5,1.2c-0.3,0.3-0.7,0.4-1.2,0.4c-0.5,0-0.9-0.1-1.2-0.4c-0.3-0.3-0.5-0.7-0.5-1.2v-11.3c0-1.9-0.3-3.2-1-4.1
			c-0.7-0.8-1.7-1.3-3.2-1.3c-1.7,0-3,0.6-4,1.7c-1,1.2-1.5,2.7-1.5,4.7v10.3c0,0.5-0.2,0.9-0.5,1.2c-0.3,0.3-0.7,0.4-1.2,0.4
			c-0.5,0-0.9-0.1-1.2-0.4c-0.3-0.3-0.5-0.7-0.5-1.2v-17.8c0-0.5,0.2-0.9,0.5-1.2c0.3-0.3,0.7-0.5,1.2-0.5c0.5,0,0.9,0.1,1.2,0.4
			c0.3,0.3,0.5,0.7,0.5,1.2v2c0.6-1.2,1.5-2.1,2.6-2.8c1.1-0.6,2.4-1,3.8-1c3.2,0,5.3,1.3,6.3,4c0.6-1.2,1.5-2.2,2.7-3
			c1.2-0.7,2.6-1.1,4.1-1.1C600.4,267.4,602.6,270.1,602.6,275.5z"/>
		<path class="st31" d="M622.2,284c0.2,0.3,0.3,0.6,0.3,1c0,0.7-0.5,1.3-1.5,1.9c-1,0.6-2.1,1-3.2,1.3c-1.1,0.3-2.2,0.4-3.3,0.4
			c-3.2,0-5.7-0.9-7.5-2.8c-1.8-1.9-2.8-4.5-2.8-7.8c0-2.1,0.4-4,1.2-5.6c0.8-1.6,2-2.9,3.4-3.8c1.5-0.9,3.2-1.3,5-1.3
			c2.7,0,4.8,0.9,6.4,2.6c1.6,1.7,2.4,4.1,2.4,7.1c0,0.6-0.1,1-0.3,1.2c-0.2,0.3-0.6,0.4-1.1,0.4h-13.6c0.3,4.8,2.5,7.3,6.9,7.3
			c1.1,0,2-0.1,2.8-0.4c0.8-0.3,1.6-0.7,2.5-1.2c0.7-0.4,1.2-0.6,1.5-0.6C621.7,283.7,622,283.8,622.2,284z M609.7,271.7
			c-1.1,1.1-1.7,2.7-1.9,4.8h11.9c-0.1-2.1-0.6-3.7-1.6-4.8c-1-1.1-2.4-1.7-4.1-1.7C612.2,270,610.8,270.6,609.7,271.7z"/>
		<path class="st31" d="M642.9,258.9c0.3,0.3,0.5,0.7,0.5,1.2v26.8c0,0.5-0.2,0.9-0.5,1.2c-0.3,0.3-0.7,0.5-1.3,0.5
			c-0.5,0-0.9-0.2-1.2-0.5c-0.3-0.3-0.4-0.7-0.4-1.2v-2.3c-0.6,1.3-1.5,2.3-2.7,3c-1.2,0.7-2.6,1.1-4.2,1.1c-1.8,0-3.4-0.4-4.8-1.4
			c-1.4-0.9-2.4-2.2-3.2-3.8c-0.8-1.6-1.1-3.5-1.1-5.6c0-2.1,0.4-4,1.1-5.6c0.8-1.6,1.8-2.8,3.2-3.7c1.4-0.9,3-1.3,4.8-1.3
			c1.6,0,3,0.4,4.2,1.1c1.2,0.7,2.1,1.7,2.7,3v-11.3c0-0.5,0.1-0.9,0.4-1.2c0.3-0.3,0.7-0.4,1.2-0.4
			C642.2,258.5,642.6,258.6,642.9,258.9z M638.4,283.8c1.1-1.4,1.6-3.3,1.6-5.8c0-2.5-0.5-4.4-1.6-5.8c-1.1-1.3-2.6-2-4.6-2
			c-2,0-3.5,0.7-4.7,2c-1.1,1.3-1.7,3.2-1.7,5.7c0,2.5,0.6,4.5,1.7,5.8c1.1,1.4,2.7,2.1,4.7,2.1
			C635.8,285.9,637.3,285.2,638.4,283.8z"/>
		<path class="st31" d="M646.4,262.4c-0.4-0.4-0.6-0.9-0.6-1.6c0-0.6,0.2-1.1,0.6-1.5c0.4-0.4,1-0.6,1.6-0.6c0.7,0,1.2,0.2,1.6,0.6
			c0.4,0.4,0.6,0.9,0.6,1.5c0,0.6-0.2,1.2-0.6,1.6c-0.4,0.4-1,0.6-1.6,0.6C647.4,263,646.9,262.8,646.4,262.4z M646.8,288.2
			c-0.3-0.3-0.5-0.7-0.5-1.2v-17.8c0-0.5,0.2-0.9,0.5-1.2c0.3-0.3,0.7-0.4,1.2-0.4c0.5,0,0.9,0.1,1.2,0.4c0.3,0.3,0.5,0.7,0.5,1.2
			v17.8c0,0.6-0.2,1-0.5,1.3c-0.3,0.3-0.7,0.4-1.2,0.4C647.6,288.6,647.2,288.5,646.8,288.2z"/>
		<path class="st31" d="M668.9,275.5v11.5c0,0.5-0.1,0.9-0.4,1.2c-0.3,0.3-0.7,0.5-1.2,0.5c-0.5,0-0.9-0.2-1.2-0.5
			c-0.3-0.3-0.5-0.7-0.5-1.2v-2c-0.5,1.2-1.3,2.1-2.4,2.8c-1.1,0.7-2.4,1-3.8,1c-1.3,0-2.5-0.3-3.6-0.8c-1.1-0.5-2-1.3-2.6-2.2
			c-0.6-1-1-2-1-3.2c0-1.5,0.4-2.7,1.2-3.6c0.8-0.9,2.1-1.5,3.9-1.9c1.8-0.4,4.3-0.6,7.5-0.6h0.9v-1.4c0-1.7-0.3-2.9-1-3.7
			c-0.7-0.8-1.8-1.2-3.4-1.2c-1.9,0-3.9,0.5-5.8,1.6c-0.8,0.5-1.3,0.7-1.6,0.7c-0.3,0-0.6-0.1-0.8-0.4c-0.2-0.3-0.3-0.6-0.3-1
			c0-0.4,0.1-0.7,0.4-1c0.2-0.3,0.6-0.6,1.2-0.9c1-0.6,2.1-1,3.4-1.3c1.3-0.3,2.5-0.5,3.7-0.5C666.3,267.4,668.9,270.1,668.9,275.5z
			 M663.9,284.3c1.1-1.1,1.6-2.6,1.6-4.4v-1.2h-0.8c-2.5,0-4.4,0.1-5.7,0.3c-1.3,0.2-2.2,0.6-2.8,1.1c-0.5,0.5-0.8,1.2-0.8,2.2
			c0,1.1,0.4,2,1.2,2.7c0.8,0.7,1.8,1.1,3,1.1C661.5,286,662.8,285.4,663.9,284.3z"/>
		<path class="st31" d="M686.5,288.2c-0.3-0.3-0.5-0.7-0.5-1.2v-26.8c0-0.5,0.2-0.9,0.5-1.2c0.3-0.3,0.7-0.4,1.2-0.4
			c0.5,0,0.9,0.1,1.2,0.4c0.3,0.3,0.5,0.7,0.5,1.2v26.8c0,0.5-0.2,0.9-0.5,1.2c-0.3,0.3-0.7,0.4-1.2,0.4
			C687.2,288.6,686.8,288.5,686.5,288.2z"/>
		<path class="st31" d="M708.5,275.5v11.5c0,0.5-0.1,0.9-0.4,1.2c-0.3,0.3-0.7,0.5-1.2,0.5c-0.5,0-0.9-0.2-1.2-0.5
			c-0.3-0.3-0.5-0.7-0.5-1.2v-2c-0.5,1.2-1.3,2.1-2.4,2.8c-1.1,0.7-2.4,1-3.8,1c-1.3,0-2.5-0.3-3.6-0.8c-1.1-0.5-2-1.3-2.6-2.2
			c-0.6-1-1-2-1-3.2c0-1.5,0.4-2.7,1.2-3.6c0.8-0.9,2.1-1.5,3.9-1.9c1.8-0.4,4.3-0.6,7.5-0.6h0.9v-1.4c0-1.7-0.3-2.9-1-3.7
			c-0.7-0.8-1.8-1.2-3.4-1.2c-1.9,0-3.9,0.5-5.8,1.6c-0.8,0.5-1.3,0.7-1.6,0.7c-0.3,0-0.6-0.1-0.8-0.4c-0.2-0.3-0.3-0.6-0.3-1
			c0-0.4,0.1-0.7,0.4-1c0.2-0.3,0.6-0.6,1.2-0.9c1-0.6,2.1-1,3.4-1.3c1.3-0.3,2.5-0.5,3.7-0.5C706,267.4,708.5,270.1,708.5,275.5z
			 M703.6,284.3c1.1-1.1,1.6-2.6,1.6-4.4v-1.2h-0.8c-2.5,0-4.4,0.1-5.7,0.3c-1.3,0.2-2.2,0.6-2.8,1.1c-0.5,0.5-0.8,1.2-0.8,2.2
			c0,1.1,0.4,2,1.2,2.7c0.8,0.7,1.8,1.1,3,1.1C701.1,286,702.5,285.4,703.6,284.3z"/>
		<path class="st31" d="M725.6,268.7c1.4,0.9,2.4,2.1,3.2,3.7c0.8,1.6,1.1,3.5,1.1,5.6c0,2.1-0.4,4-1.1,5.6
			c-0.8,1.6-1.8,2.9-3.2,3.8c-1.4,0.9-3,1.4-4.8,1.4c-1.6,0-3-0.4-4.2-1.1c-1.2-0.7-2.1-1.7-2.7-3v2.3c0,0.5-0.1,0.9-0.4,1.2
			c-0.3,0.3-0.7,0.5-1.2,0.5c-0.5,0-1-0.2-1.3-0.5c-0.3-0.3-0.5-0.7-0.5-1.2v-26.8c0-0.5,0.2-0.9,0.5-1.2c0.3-0.3,0.7-0.5,1.3-0.5
			c0.5,0,0.9,0.1,1.2,0.4c0.3,0.3,0.4,0.7,0.4,1.2v11.3c0.6-1.3,1.5-2.3,2.7-3c1.2-0.7,2.6-1.1,4.2-1.1
			C722.7,267.4,724.3,267.8,725.6,268.7z M724.8,283.8c1.1-1.4,1.6-3.3,1.6-5.8c0-2.4-0.5-4.3-1.6-5.7c-1.1-1.3-2.6-2-4.6-2
			c-2,0-3.5,0.7-4.6,2c-1.1,1.3-1.6,3.3-1.6,5.8c0,2.5,0.5,4.4,1.6,5.8c1.1,1.4,2.6,2,4.6,2C722.2,285.9,723.8,285.2,724.8,283.8z"
			/>
		<path class="st31" d="M735.8,288.2c-1.2-0.3-2.2-0.7-3.1-1.3c-0.5-0.3-0.9-0.7-1.1-0.9c-0.2-0.3-0.3-0.7-0.3-1.1
			c0-0.4,0.1-0.7,0.3-0.9c0.2-0.2,0.5-0.4,0.8-0.4c0.3,0,0.8,0.2,1.5,0.6c0.8,0.5,1.7,0.9,2.5,1.2c0.8,0.3,1.9,0.4,3.1,0.4
			c1.5,0,2.7-0.3,3.5-0.8c0.8-0.5,1.3-1.3,1.3-2.3c0-0.6-0.2-1.1-0.5-1.5c-0.3-0.4-0.8-0.7-1.6-1c-0.8-0.3-1.9-0.6-3.3-0.9
			c-2.5-0.5-4.2-1.3-5.3-2.2c-1.1-0.9-1.6-2.1-1.6-3.7c0-1.2,0.3-2.3,1-3.2c0.7-0.9,1.6-1.7,2.8-2.2c1.2-0.5,2.6-0.8,4.1-0.8
			c1.1,0,2.2,0.1,3.2,0.4c1,0.3,1.9,0.7,2.7,1.2c1,0.7,1.4,1.4,1.4,2.1c0,0.4-0.1,0.7-0.3,0.9c-0.2,0.3-0.5,0.4-0.8,0.4
			c-0.3,0-0.8-0.2-1.5-0.7c-0.8-0.5-1.5-0.9-2.2-1.2c-0.7-0.3-1.6-0.4-2.6-0.4c-1.3,0-2.4,0.3-3.2,0.9c-0.8,0.6-1.2,1.4-1.2,2.4
			c0,0.6,0.1,1.1,0.4,1.5c0.3,0.4,0.8,0.7,1.5,1c0.7,0.3,1.7,0.6,3,0.9c1.9,0.4,3.4,0.9,4.4,1.4c1.1,0.5,1.8,1.1,2.3,1.9
			c0.4,0.7,0.7,1.7,0.7,2.8c0,1.8-0.7,3.2-2.2,4.3c-1.5,1.1-3.5,1.6-5.9,1.6C738.2,288.7,737,288.6,735.8,288.2z"/>
	</g>
	<path class="st31" d="M262.7,160.4c1.2,0,2.2,0.4,3,1.2c0.8,0.8,1.2,1.8,1.2,3v32.7c0,1.1-0.4,2.1-1.2,2.9c-0.8,0.8-1.8,1.3-3,1.3
		h-15.9c-1.1,0-2.1-0.4-2.9-1.3c-0.8-0.8-1.3-1.8-1.3-2.9v-32.7c0-1.2,0.4-2.2,1.3-3c0.8-0.8,1.8-1.2,2.9-1.2H262.7z M263.6,193.6
		v-27.7H246v27.7H263.6z"/>
	<path class="st31" d="M212.3,168.8h-34.9c-0.8,0-1.5,0.7-1.5,1.5v21.4c0,0.8,0.7,1.5,1.5,1.5h10.9c0.9-2.1,3.4-7.9,4.1-8.7
		c0.4-0.8,1.3-1.3,2.3-1.3c1,0,1.9,0.6,2.3,1.4c0.7,0.9,3.2,6.6,4.1,8.7h11.1c0.8,0,1.5-0.7,1.5-1.5v-21.4
		C213.8,169.4,213.2,168.8,212.3,168.8z M186.1,185.1c-2.2,0-3.9-1.8-3.9-4c0-2.2,1.8-4,3.9-4c2.2,0,3.9,1.8,3.9,4
		C190,183.3,188.3,185.1,186.1,185.1z M203.5,185.1c-2.2,0-3.9-1.8-3.9-4c0-2.2,1.8-4,3.9-4c2.2,0,3.9,1.8,3.9,4
		C207.5,183.3,205.7,185.1,203.5,185.1z"/>
	<path class="st31" d="M332.6,179.5c-0.6-1.8-1.8-7.9-3.7-9.1c-1.8-1.2-0.9-1.2-2.7-1.2c-1.8,0-1.8,0.6-2.1,0.6l0,0
		c-0.5,0-1,0.3-1.2,0.6c-1.5,0-6.7,0-8,0c0,0-0.1,0-0.3,0c-1.3,0-6.5,0-8,0c-0.2-0.4-0.6-0.6-1.2-0.6l0,0c-0.3,0-0.3-0.6-2.1-0.6
		c-1.8,0-0.9,0-2.7,1.2c-1.8,1.2-3.1,7.3-3.7,9.1c-0.6,1.8-1.8,7.8-1.2,10.4c0.3,1.1,1.8,3,3.4,3c1.5,0,2.1,0,3.4-0.6
		c1.2-0.6,2.7-5.8,3.1-6.7c0.3-0.9,0.6-0.9,0.9-0.9c0.3,0,0.6,0.6,2.4,0.6c1.8,0,2.4-0.9,2.4-0.9h3.4h0.3h3.4c0,0,0.6,0.9,2.4,0.9
		c1.8,0,2.1-0.6,2.4-0.6c0.3,0,0.6,0,0.9,0.9c0.3,0.9,1.8,6.1,3.1,6.7c1.2,0.6,1.8,0.6,3.4,0.6c1.5,0,3.1-1.9,3.4-3
		C334.4,187.3,333.2,181.3,332.6,179.5z M302,173.5c0-0.4,0.3-0.8,0.8-0.8c0.4,0,0.8,0.3,0.8,0.8v0.9c0,0.4-0.3,0.8-0.8,0.8
		c-0.4,0-0.8-0.3-0.8-0.8V173.5z M301.4,176.6h-0.9c-0.4,0-0.8-0.3-0.8-0.8c0-0.4,0.3-0.8,0.8-0.8h0.9c0.4,0,0.8,0.3,0.8,0.8
		C302.2,176.2,301.8,176.6,301.4,176.6z M303.6,178.1c0,0.4-0.3,0.8-0.8,0.8c-0.4,0-0.8-0.3-0.8-0.8v-0.9c0-0.4,0.3-0.8,0.8-0.8
		c0.4,0,0.8,0.3,0.8,0.8V178.1z M305.1,176.6h-0.9c-0.4,0-0.8-0.3-0.8-0.8c0-0.4,0.3-0.8,0.8-0.8h0.9c0.4,0,0.8,0.3,0.8,0.8
		C305.8,176.2,305.5,176.6,305.1,176.6z M308.4,183.1c-1.3,0-2.3-1-2.3-2.3c0-1.3,1-2.3,2.3-2.3c1.3,0,2.3,1,2.3,2.3
		C310.7,182.1,309.7,183.1,308.4,183.1z M321,183.1c-1.3,0-2.3-1-2.3-2.3c0-1.3,1-2.3,2.3-2.3c1.3,0,2.3,1,2.3,2.3
		C323.2,182.1,322.2,183.1,321,183.1z M324,177c-0.7,0-1.2-0.5-1.2-1.2s0.5-1.2,1.2-1.2c0.7,0,1.2,0.5,1.2,1.2S324.7,177,324,177z
		 M326.8,179.8c-0.7,0-1.2-0.5-1.2-1.2c0-0.7,0.5-1.2,1.2-1.2c0.7,0,1.2,0.5,1.2,1.2C328,179.2,327.4,179.8,326.8,179.8z
		 M326.8,174.3c-0.7,0-1.2-0.5-1.2-1.2c0-0.7,0.5-1.2,1.2-1.2c0.7,0,1.2,0.5,1.2,1.2C328,173.7,327.4,174.3,326.8,174.3z M329.5,177
		c-0.7,0-1.2-0.5-1.2-1.2s0.5-1.2,1.2-1.2c0.7,0,1.2,0.5,1.2,1.2S330.2,177,329.5,177z"/>
	<path class="st31" d="M257.1,197.2c0,1.3-1.1,2.4-2.3,2.4c-1.3,0-2.3-1.1-2.3-2.4c0-1.3,1.1-2.4,2.3-2.4
		C256.1,194.8,257.1,195.9,257.1,197.2z"/>
</g>
</svg>
