<?xml version="1.0" encoding="utf-8"?>
<!-- Generator: Adobe Illustrator 22.0.1, SVG Export Plug-In . SVG Version: 6.00 Build 0)  -->
<svg version="1.1" id="Layer_1" xmlns="http://www.w3.org/2000/svg" xmlns:xlink="http://www.w3.org/1999/xlink" x="0px" y="0px"
	 viewBox="0 0 88.9 27" style="enable-background:new 0 0 88.9 27;" xml:space="preserve">
<g>
	<path d="M31.1,2.6v17.6c0,0.7-0.3,1.3-0.8,1.8c-0.5,0.5-1.1,0.8-1.8,0.8h-8.8c0,0.4,0.1,0.8,0.3,1.2c0.2,0.4,0.3,0.8,0.5,1.2
		c0.2,0.3,0.2,0.6,0.3,0.7c0,0.3-0.1,0.5-0.3,0.7C20.2,26.9,20,27,19.7,27h-8.3c-0.3,0-0.5-0.1-0.7-0.3c-0.2-0.2-0.3-0.5-0.3-0.7
		c0-0.2,0.1-0.4,0.3-0.7c0.2-0.3,0.3-0.7,0.5-1.1c0.2-0.4,0.3-0.8,0.3-1.2H2.6c-0.7,0-1.3-0.3-1.8-0.8C0.2,21.5,0,20.9,0,20.2V2.6
		c0-0.7,0.3-1.3,0.8-1.8C1.3,0.3,1.9,0,2.6,0h25.9c0.7,0,1.3,0.3,1.8,0.8C30.8,1.3,31.1,1.9,31.1,2.6z M29,16.1V2.6
		c0-0.1,0-0.3-0.1-0.3c-0.1-0.1-0.2-0.2-0.4-0.2H2.6c-0.1,0-0.3,0.1-0.3,0.2C2.1,2.4,2.1,2.5,2.1,2.6v13.5c0,0.1,0.1,0.3,0.2,0.3
		c0.1,0.1,0.2,0.1,0.3,0.1h25.9c0.1,0,0.3,0,0.4-0.1C29,16.4,29,16.3,29,16.1z"/>
	<g>
		<path d="M16.5,6.3c0.2,0,0.3,0.1,0.4,0.2c0.1,0.1,0.2,0.3,0.2,0.4v4.8c0,0.2-0.1,0.3-0.2,0.4c-0.1,0.1-0.3,0.2-0.4,0.2h-2.4
			c-0.2,0-0.3-0.1-0.4-0.2c-0.1-0.1-0.2-0.3-0.2-0.4V6.9c0-0.2,0.1-0.3,0.2-0.4c0.1-0.1,0.3-0.2,0.4-0.2H16.5z M16.6,11.2V7.1H14
			v4.1H16.6z M15.3,12.2c0.1,0,0.2,0,0.3-0.1c0.1-0.1,0.1-0.1,0.1-0.2c0-0.1,0-0.2-0.1-0.2c-0.1-0.1-0.2-0.1-0.3-0.1
			c-0.1,0-0.2,0-0.3,0.1c-0.1,0.1-0.1,0.1-0.1,0.2c0,0.1,0,0.2,0.1,0.2C15.1,12.1,15.2,12.2,15.3,12.2z"/>
		<path d="M3.8,9.1c0-0.1,0-0.1,0-0.2l2.2-1.2c0.1,0,0.2,0,0.3,0.1c0,0.1,0,0.2-0.1,0.3L4.8,8.9h4.1L7.5,8.2C7.4,8.1,7.4,8,7.4,7.9
			c0.1-0.1,0.1-0.1,0.3-0.1L9.9,9C10,9,10,9.1,10,9.1l-0.2,1.6c0,0.1-0.1,0.2-0.2,0.2H7.7c-0.1,0-0.2-0.1-0.2-0.2L7.2,9.4
			C7,9.3,6.8,9.3,6.6,9.4l-0.3,1.4c0,0.1-0.1,0.2-0.2,0.2H4.2C4,10.9,4,10.8,4,10.7L3.8,9.1z M4.2,9.3l0.1,1.2h1.6l0.3-1.2H4.2z
			 M7.6,9.3l0.3,1.2h1.6l0.1-1.2H7.6z"/>
		<path d="M27.3,9.4c0,0.5-0.2,0.9-0.5,1.3c-0.3,0.3-0.8,0.5-1.3,0.5c-0.4,0-0.8-0.1-1.2-0.4h-0.8c-0.3,0.3-0.7,0.4-1.2,0.4
			c-0.5,0-0.9-0.2-1.3-0.5c-0.3-0.3-0.5-0.8-0.5-1.3c0-0.5,0.2-0.9,0.5-1.3c0.4-0.3,0.8-0.5,1.3-0.5h3.1c0.5,0,0.9,0.2,1.3,0.5
			C27.1,8.4,27.3,8.9,27.3,9.4z M23.5,9.6V9.1c0,0,0-0.1,0-0.1c0,0,0,0-0.1,0h-0.7V8.4c0,0,0-0.1,0-0.1s0,0-0.1,0h-0.4
			c0,0-0.1,0-0.1,0s0,0,0,0.1V9h-0.7c0,0-0.1,0-0.1,0c0,0,0,0,0,0.1v0.4c0,0,0,0.1,0,0.1c0,0,0,0,0.1,0h0.7v0.7c0,0,0,0.1,0,0.1
			s0,0,0.1,0h0.4c0,0,0.1,0,0.1,0s0,0,0-0.1V9.7h0.7C23.4,9.7,23.5,9.7,23.5,9.6C23.5,9.6,23.5,9.6,23.5,9.6z M25.5,9.8
			c0-0.1,0-0.2-0.1-0.3c-0.1-0.1-0.2-0.1-0.3-0.1c-0.1,0-0.2,0-0.3,0.1c-0.1,0.1-0.1,0.2-0.1,0.3c0,0.1,0,0.2,0.1,0.3
			c0.1,0.1,0.2,0.1,0.3,0.1c0.1,0,0.2,0,0.3-0.1C25.5,10,25.5,9.9,25.5,9.8z M26.4,8.9c0-0.1,0-0.2-0.1-0.3
			c-0.1-0.1-0.2-0.1-0.3-0.1c-0.1,0-0.2,0-0.3,0.1c-0.1,0.1-0.1,0.2-0.1,0.3c0,0.1,0,0.2,0.1,0.3c0.1,0.1,0.2,0.1,0.3,0.1
			c0.1,0,0.2,0,0.3-0.1C26.4,9.1,26.4,9,26.4,8.9z"/>
	</g>
</g>
<g>
	<g>
		<path d="M36,3.9c0,1.4,1.5,2.4,4.3,2.9h0c1.6,0.3,2.9,0.7,3.8,1.4c1.1,0.7,1.6,1.6,1.6,2.8s-0.5,2.1-1.6,2.9
			c-1.1,0.8-2.4,1.2-3.8,1.2c-1.9,0-3.7-0.7-5.5-2.1c-0.2-0.2-0.2-0.4-0.1-0.7c0.1-0.1,0.2-0.2,0.3-0.2c0.1,0,0.2,0,0.3,0.1
			c1.6,1.3,3.2,1.9,4.9,1.9c1.3,0,2.4-0.3,3.3-1c0.8-0.6,1.3-1.3,1.3-2.2c0-1.6-1.5-2.7-4.6-3.2h0c-3.3-0.6-5-1.9-5-3.8
			c0-1.1,0.5-2,1.5-2.8c1-0.7,2.2-1.1,3.6-1.1c0.6,0,1.2,0.1,1.8,0.3c0.6,0.2,1.1,0.4,1.4,0.6c0.3,0.2,0.8,0.5,1.3,0.8
			c0.3,0.2,0.3,0.4,0.1,0.7c-0.2,0.3-0.4,0.3-0.6,0.1c-0.5-0.3-0.9-0.6-1.2-0.8c-0.3-0.2-0.7-0.4-1.3-0.5c-0.5-0.2-1-0.3-1.6-0.3
			c-1.2,0-2.2,0.3-3,0.9C36.4,2.4,36,3.1,36,3.9z"/>
		<path d="M47.2,18.9V5.2c0-0.1,0-0.3,0.1-0.4c0.1-0.1,0.2-0.1,0.4-0.1c0.1,0,0.3,0,0.4,0.1c0.1,0.1,0.2,0.2,0.2,0.4v1.5
			c0.5-0.6,1-1.1,1.7-1.5c0.7-0.4,1.4-0.5,2.2-0.5c1.4,0,2.6,0.5,3.6,1.5c1,1,1.5,2.2,1.5,3.6c0,1.4-0.5,2.6-1.5,3.7
			c-1,1-2.2,1.5-3.6,1.5c-0.8,0-1.5-0.2-2.2-0.6c-0.7-0.4-1.3-0.9-1.7-1.5v5.9c0,0.1-0.1,0.3-0.2,0.4c-0.1,0.1-0.2,0.1-0.4,0.1
			c-0.1,0-0.3,0-0.4-0.1C47.2,19.1,47.2,19,47.2,18.9z M48.2,9.6v0.2c0,1.1,0.4,2.1,1.2,2.9c0.8,0.8,1.7,1.2,2.8,1.2
			c1.1,0,2-0.4,2.8-1.2c0.8-0.8,1.2-1.8,1.2-2.9c0-1.1-0.4-2.1-1.2-2.9c-0.8-0.8-1.7-1.2-2.8-1.2c-1.1,0-2,0.4-2.8,1.1
			C48.7,7.6,48.3,8.5,48.2,9.6z"/>
		<path d="M67.3,4.8c0.1-0.1,0.2-0.1,0.4-0.1c0.1,0,0.3,0,0.4,0.1c0.1,0.1,0.1,0.2,0.1,0.4v9.4c0,0.1,0,0.3-0.1,0.4
			c-0.1,0.1-0.2,0.1-0.4,0.1c-0.1,0-0.3,0-0.4-0.1c-0.1-0.1-0.1-0.2-0.1-0.4V13c-0.5,0.6-1,1.1-1.7,1.5c-0.7,0.4-1.4,0.6-2.2,0.6
			c-1.4,0-2.5-0.5-3.5-1.5c-1-1-1.4-2.2-1.4-3.7c0-1.4,0.5-2.6,1.4-3.7c1-1,2.1-1.5,3.5-1.5c0.8,0,1.5,0.2,2.2,0.6
			c0.7,0.4,1.3,0.9,1.7,1.5V5.2C67.2,5,67.2,4.9,67.3,4.8z M59.4,9.9c0,1.2,0.4,2.1,1.2,3c0.8,0.8,1.7,1.2,2.8,1.2
			c1.1,0,2-0.4,2.7-1.2c0.8-0.8,1.1-1.8,1.1-3c0-1.2-0.4-2.1-1.1-3c-0.8-0.8-1.7-1.2-2.7-1.2c-1.1,0-2,0.4-2.8,1.2
			C59.8,7.7,59.4,8.7,59.4,9.9z"/>
		<path d="M70.9,13.5c-1-1-1.6-2.2-1.6-3.7c0-1.4,0.5-2.7,1.6-3.7c1-1,2.2-1.5,3.6-1.5C75.8,4.7,77,5,78,5.8
			c0.1,0.1,0.2,0.2,0.2,0.3c0,0.1,0,0.3-0.1,0.4c-0.2,0.2-0.4,0.3-0.7,0.1c-0.8-0.6-1.7-0.9-2.8-0.9c-1.1,0-2.1,0.4-2.9,1.2
			c-0.8,0.8-1.3,1.8-1.3,3c0,1.2,0.4,2.1,1.3,3c0.8,0.8,1.8,1.2,2.9,1.2c1.1,0,2-0.3,2.8-0.9c0.3-0.2,0.5-0.1,0.7,0.1
			c0.2,0.3,0.2,0.5-0.1,0.7c-0.9,0.7-2,1.1-3.3,1.1C73.2,15.1,71.9,14.5,70.9,13.5z"/>
		<path d="M88.9,9.5L88.9,9.5c0,0.2,0,0.3-0.1,0.4C88.7,10,88.6,10,88.4,10h-8.5c0.1,1.1,0.5,2.1,1.3,2.8c0.8,0.8,1.7,1.1,2.8,1.1
			c0.7,0,1.3-0.2,1.9-0.5c0.6-0.3,1.1-0.8,1.4-1.4c0.2-0.3,0.4-0.3,0.7-0.2c0.3,0.2,0.3,0.4,0.2,0.7c-0.5,0.7-1,1.3-1.8,1.7
			c-0.7,0.4-1.5,0.6-2.4,0.6c-1.4,0-2.6-0.5-3.6-1.5c-1-1-1.5-2.2-1.5-3.7c0-1.4,0.5-2.7,1.5-3.7c1-1,2.2-1.5,3.5-1.5
			c1.4,0,2.5,0.5,3.5,1.4C88.3,7,88.8,8.1,88.9,9.5z M86.5,6.6c-0.7-0.6-1.6-1-2.6-1c-1,0-1.8,0.3-2.6,0.9c-0.7,0.6-1.2,1.4-1.4,2.4
			h7.9C87.6,8.1,87.2,7.3,86.5,6.6z"/>
	</g>
	<g>
		<path d="M35.1,21.4c-0.1-0.1-0.1-0.1-0.1-0.2c0-0.1,0-0.2,0.1-0.2c0.1-0.1,0.1-0.1,0.2-0.1s0.2,0,0.2,0.1c0.1,0.1,0.1,0.1,0.1,0.2
			c0,0.1,0,0.2-0.1,0.2c-0.1,0.1-0.1,0.1-0.2,0.1S35.2,21.5,35.1,21.4z M35.2,25.2c0,0-0.1-0.1-0.1-0.2v-2.6c0-0.1,0-0.1,0.1-0.2
			c0,0,0.1-0.1,0.2-0.1c0.1,0,0.1,0,0.2,0.1c0,0,0.1,0.1,0.1,0.2v2.6c0,0.1,0,0.1-0.1,0.2s-0.1,0.1-0.2,0.1
			C35.3,25.3,35.2,25.3,35.2,25.2z"/>
		<path d="M38.7,23.4v1.7c0,0.1,0,0.1-0.1,0.2c0,0-0.1,0.1-0.2,0.1s-0.1,0-0.2-0.1c0,0-0.1-0.1-0.1-0.2v-1.7c0-0.3-0.1-0.5-0.2-0.6
			c-0.1-0.1-0.3-0.2-0.5-0.2c-0.3,0-0.5,0.1-0.7,0.3c-0.2,0.2-0.2,0.4-0.2,0.7v1.5c0,0.1,0,0.1-0.1,0.2c0,0-0.1,0.1-0.2,0.1
			s-0.1,0-0.2-0.1c0,0-0.1-0.1-0.1-0.2v-2.6c0-0.1,0-0.1,0.1-0.2s0.1-0.1,0.2-0.1c0.1,0,0.1,0,0.2,0.1c0,0,0.1,0.1,0.1,0.2v0.3
			c0.1-0.2,0.2-0.3,0.4-0.4c0.2-0.1,0.4-0.1,0.6-0.1C38.3,22.2,38.7,22.6,38.7,23.4z"/>
		<path d="M40.9,25.1c0,0.1,0,0.1-0.1,0.2c-0.1,0-0.1,0-0.2,0l-0.2,0c-0.3,0-0.6-0.1-0.7-0.3s-0.2-0.4-0.2-0.8v-1.6H39
			c-0.1,0-0.1,0-0.2-0.1c0,0-0.1-0.1-0.1-0.1c0-0.1,0-0.1,0.1-0.1c0,0,0.1-0.1,0.2-0.1h0.4v-0.7c0-0.1,0-0.1,0.1-0.2
			c0,0,0.1-0.1,0.2-0.1c0.1,0,0.1,0,0.2,0.1c0,0,0.1,0.1,0.1,0.2v0.7h0.7c0.1,0,0.1,0,0.2,0.1c0,0,0.1,0.1,0.1,0.1
			c0,0.1,0,0.1-0.1,0.1c0,0-0.1,0.1-0.2,0.1h-0.7v1.6c0,0.2,0,0.4,0.1,0.5s0.2,0.2,0.4,0.2l0.2,0C40.8,24.9,40.9,25,40.9,25.1z"/>
		<path d="M43.6,24.6c0,0,0,0.1,0,0.1c0,0.1-0.1,0.2-0.2,0.3c-0.1,0.1-0.3,0.2-0.5,0.2c-0.2,0-0.3,0.1-0.5,0.1
			c-0.5,0-0.8-0.1-1.1-0.4s-0.4-0.7-0.4-1.2c0-0.3,0.1-0.6,0.2-0.8c0.1-0.2,0.3-0.4,0.5-0.6c0.2-0.1,0.5-0.2,0.7-0.2
			c0.4,0,0.7,0.1,0.9,0.4c0.2,0.3,0.3,0.6,0.3,1.1c0,0.1,0,0.1,0,0.2s-0.1,0.1-0.2,0.1h-2c0,0.7,0.4,1.1,1,1.1c0.2,0,0.3,0,0.4-0.1
			c0.1,0,0.2-0.1,0.4-0.2c0.1-0.1,0.2-0.1,0.2-0.1C43.5,24.6,43.6,24.6,43.6,24.6z M41.7,22.8c-0.2,0.2-0.3,0.4-0.3,0.7h1.8
			c0-0.3-0.1-0.5-0.2-0.7s-0.4-0.2-0.6-0.2C42.1,22.6,41.9,22.6,41.7,22.8z"/>
		<path d="M45.8,22.4c0,0.1,0,0.1-0.1,0.2s-0.1,0.1-0.2,0.1l-0.2,0c-0.3,0-0.5,0.1-0.6,0.3c-0.1,0.2-0.2,0.4-0.2,0.6v1.5
			c0,0.1,0,0.1-0.1,0.2s-0.1,0.1-0.2,0.1c-0.1,0-0.1,0-0.2-0.1c0,0-0.1-0.1-0.1-0.2v-2.6c0-0.1,0-0.1,0.1-0.2c0,0,0.1-0.1,0.2-0.1
			c0.1,0,0.1,0,0.2,0.1c0,0,0.1,0.1,0.1,0.2v0.3c0.1-0.2,0.2-0.3,0.4-0.4c0.2-0.1,0.3-0.2,0.6-0.2l0.1,0
			C45.7,22.2,45.8,22.2,45.8,22.4z"/>
		<path d="M48.5,23.4v1.7c0,0.1,0,0.1-0.1,0.2c0,0-0.1,0.1-0.2,0.1c-0.1,0-0.1,0-0.2-0.1S48,25.1,48,25.1v-0.3
			c-0.1,0.2-0.2,0.3-0.4,0.4c-0.2,0.1-0.4,0.1-0.6,0.1c-0.2,0-0.4,0-0.5-0.1s-0.3-0.2-0.4-0.3C46,24.7,46,24.6,46,24.4
			c0-0.2,0.1-0.4,0.2-0.5c0.1-0.1,0.3-0.2,0.6-0.3c0.3-0.1,0.6-0.1,1.1-0.1H48v-0.2c0-0.2-0.1-0.4-0.2-0.5s-0.3-0.2-0.5-0.2
			c-0.3,0-0.6,0.1-0.9,0.2c-0.1,0.1-0.2,0.1-0.2,0.1c0,0-0.1,0-0.1-0.1c0,0,0-0.1,0-0.1c0-0.1,0-0.1,0.1-0.2c0,0,0.1-0.1,0.2-0.1
			c0.1-0.1,0.3-0.1,0.5-0.2c0.2,0,0.4-0.1,0.6-0.1C48.1,22.2,48.5,22.6,48.5,23.4z M47.7,24.7c0.2-0.2,0.2-0.4,0.2-0.7v-0.2h-0.1
			c-0.4,0-0.6,0-0.8,0c-0.2,0-0.3,0.1-0.4,0.2c-0.1,0.1-0.1,0.2-0.1,0.3c0,0.2,0.1,0.3,0.2,0.4c0.1,0.1,0.3,0.2,0.4,0.2
			C47.4,24.9,47.6,24.8,47.7,24.7z"/>
		<path d="M49.4,25.1c-0.2-0.1-0.4-0.3-0.5-0.6c-0.1-0.2-0.2-0.5-0.2-0.8s0.1-0.6,0.2-0.8c0.1-0.2,0.3-0.4,0.5-0.6
			c0.2-0.1,0.5-0.2,0.8-0.2c0.2,0,0.3,0,0.5,0.1c0.2,0,0.3,0.1,0.4,0.2c0.1,0,0.1,0.1,0.2,0.1c0,0,0,0.1,0,0.2c0,0.1,0,0.1,0,0.1
			s-0.1,0.1-0.1,0.1c0,0-0.1,0-0.1,0c0,0-0.1,0-0.1,0s0,0,0,0c-0.1-0.1-0.2-0.1-0.3-0.2c-0.1,0-0.2-0.1-0.4-0.1
			c-0.3,0-0.5,0.1-0.7,0.3c-0.2,0.2-0.3,0.5-0.3,0.9s0.1,0.6,0.3,0.9c0.2,0.2,0.4,0.3,0.7,0.3c0.1,0,0.3,0,0.4-0.1s0.2-0.1,0.3-0.2
			c0,0,0.1-0.1,0.1-0.1c0,0,0.1,0,0.1,0c0,0,0.1,0,0.1,0.1s0,0.1,0,0.1c0,0.1,0,0.1,0,0.1c0,0-0.1,0.1-0.2,0.1
			c-0.1,0.1-0.3,0.1-0.4,0.2s-0.3,0.1-0.5,0.1C49.9,25.3,49.6,25.3,49.4,25.1z"/>
		<path d="M53.5,25.1c0,0.1,0,0.1-0.1,0.2c-0.1,0-0.1,0-0.2,0l-0.2,0c-0.3,0-0.6-0.1-0.7-0.3s-0.2-0.4-0.2-0.8v-1.6h-0.4
			c-0.1,0-0.1,0-0.2-0.1c0,0-0.1-0.1-0.1-0.1c0-0.1,0-0.1,0.1-0.1c0,0,0.1-0.1,0.2-0.1h0.4v-0.7c0-0.1,0-0.1,0.1-0.2
			c0,0,0.1-0.1,0.2-0.1c0.1,0,0.1,0,0.2,0.1c0,0,0.1,0.1,0.1,0.2v0.7h0.7c0.1,0,0.1,0,0.2,0.1c0,0,0.1,0.1,0.1,0.1
			c0,0.1,0,0.1-0.1,0.1c0,0-0.1,0.1-0.2,0.1h-0.7v1.6c0,0.2,0,0.4,0.1,0.5s0.2,0.2,0.4,0.2l0.2,0C53.5,24.9,53.5,25,53.5,25.1z"/>
		<path d="M53.8,21.4c-0.1-0.1-0.1-0.1-0.1-0.2c0-0.1,0-0.2,0.1-0.2c0.1-0.1,0.1-0.1,0.2-0.1s0.2,0,0.2,0.1c0.1,0.1,0.1,0.1,0.1,0.2
			c0,0.1,0,0.2-0.1,0.2c-0.1,0.1-0.1,0.1-0.2,0.1S53.8,21.5,53.8,21.4z M53.8,25.2c0,0-0.1-0.1-0.1-0.2v-2.6c0-0.1,0-0.1,0.1-0.2
			c0,0,0.1-0.1,0.2-0.1c0.1,0,0.1,0,0.2,0.1c0,0,0.1,0.1,0.1,0.2v2.6c0,0.1,0,0.1-0.1,0.2s-0.1,0.1-0.2,0.1
			C54,25.3,53.9,25.3,53.8,25.2z"/>
		<path d="M57.4,22.2c0.1,0,0.1,0,0.2,0.1c0.1,0,0.1,0.1,0.1,0.2c0,0,0,0.1,0,0.1l-1.2,2.6c0,0.1-0.1,0.1-0.1,0.1c0,0-0.1,0-0.2,0
			c-0.1,0-0.1,0-0.2,0c-0.1,0-0.1-0.1-0.1-0.1l-1.2-2.6c0,0,0-0.1,0-0.1c0-0.1,0-0.1,0.1-0.2s0.1-0.1,0.2-0.1c0,0,0.1,0,0.1,0
			s0.1,0.1,0.1,0.1l1,2.3l1-2.3C57.2,22.2,57.3,22.2,57.4,22.2z"/>
		<path d="M60.2,24.6c0,0,0,0.1,0,0.1c0,0.1-0.1,0.2-0.2,0.3c-0.1,0.1-0.3,0.2-0.5,0.2c-0.2,0-0.3,0.1-0.5,0.1
			c-0.5,0-0.8-0.1-1.1-0.4s-0.4-0.7-0.4-1.2c0-0.3,0.1-0.6,0.2-0.8c0.1-0.2,0.3-0.4,0.5-0.6c0.2-0.1,0.5-0.2,0.7-0.2
			c0.4,0,0.7,0.1,0.9,0.4c0.2,0.3,0.3,0.6,0.3,1.1c0,0.1,0,0.1,0,0.2s-0.1,0.1-0.2,0.1h-2c0,0.7,0.4,1.1,1,1.1c0.2,0,0.3,0,0.4-0.1
			c0.1,0,0.2-0.1,0.4-0.2c0.1-0.1,0.2-0.1,0.2-0.1C60.2,24.6,60.2,24.6,60.2,24.6z M58.4,22.8c-0.2,0.2-0.3,0.4-0.3,0.7h1.8
			c0-0.3-0.1-0.5-0.2-0.7s-0.4-0.2-0.6-0.2C58.8,22.6,58.6,22.6,58.4,22.8z"/>
		<path d="M67.1,23.4v1.7c0,0.1,0,0.1-0.1,0.2c0,0-0.1,0.1-0.2,0.1c-0.1,0-0.1,0-0.2-0.1c0,0-0.1-0.1-0.1-0.2v-1.7
			c0-0.3,0-0.5-0.1-0.6s-0.3-0.2-0.5-0.2c-0.3,0-0.5,0.1-0.6,0.3c-0.1,0.2-0.2,0.4-0.2,0.7v1.5c0,0.1,0,0.1-0.1,0.2
			c0,0-0.1,0.1-0.2,0.1c-0.1,0-0.1,0-0.2-0.1c0,0-0.1-0.1-0.1-0.2v-1.7c0-0.3-0.1-0.5-0.2-0.6c-0.1-0.1-0.3-0.2-0.5-0.2
			c-0.2,0-0.4,0.1-0.6,0.3s-0.2,0.4-0.2,0.7v1.5c0,0.1,0,0.1-0.1,0.2c0,0-0.1,0.1-0.2,0.1c-0.1,0-0.1,0-0.2-0.1c0,0-0.1-0.1-0.1-0.2
			v-2.6c0-0.1,0-0.1,0.1-0.2s0.1-0.1,0.2-0.1c0.1,0,0.1,0,0.2,0.1c0,0,0.1,0.1,0.1,0.2v0.3c0.1-0.2,0.2-0.3,0.4-0.4
			c0.2-0.1,0.4-0.1,0.6-0.1c0.5,0,0.8,0.2,0.9,0.6c0.1-0.2,0.2-0.3,0.4-0.4s0.4-0.2,0.6-0.2C66.7,22.2,67.1,22.6,67.1,23.4z"/>
		<path d="M70,24.6c0,0,0,0.1,0,0.1c0,0.1-0.1,0.2-0.2,0.3c-0.1,0.1-0.3,0.2-0.5,0.2c-0.2,0-0.3,0.1-0.5,0.1c-0.5,0-0.8-0.1-1.1-0.4
			s-0.4-0.7-0.4-1.2c0-0.3,0.1-0.6,0.2-0.8c0.1-0.2,0.3-0.4,0.5-0.6c0.2-0.1,0.5-0.2,0.7-0.2c0.4,0,0.7,0.1,0.9,0.4
			c0.2,0.3,0.3,0.6,0.3,1.1c0,0.1,0,0.1,0,0.2s-0.1,0.1-0.2,0.1h-2c0,0.7,0.4,1.1,1,1.1c0.2,0,0.3,0,0.4-0.1c0.1,0,0.2-0.1,0.4-0.2
			c0.1-0.1,0.2-0.1,0.2-0.1C69.9,24.6,69.9,24.6,70,24.6z M68.1,22.8c-0.2,0.2-0.3,0.4-0.3,0.7h1.8c0-0.3-0.1-0.5-0.2-0.7
			s-0.4-0.2-0.6-0.2C68.5,22.6,68.3,22.6,68.1,22.8z"/>
		<path d="M73.1,20.9c0,0,0.1,0.1,0.1,0.2v4c0,0.1,0,0.1-0.1,0.2s-0.1,0.1-0.2,0.1s-0.1,0-0.2-0.1c0,0-0.1-0.1-0.1-0.2v-0.3
			c-0.1,0.2-0.2,0.3-0.4,0.4c-0.2,0.1-0.4,0.2-0.6,0.2c-0.3,0-0.5-0.1-0.7-0.2s-0.4-0.3-0.5-0.6c-0.1-0.2-0.2-0.5-0.2-0.8
			c0-0.3,0.1-0.6,0.2-0.8c0.1-0.2,0.3-0.4,0.5-0.5c0.2-0.1,0.4-0.2,0.7-0.2c0.2,0,0.4,0.1,0.6,0.2s0.3,0.3,0.4,0.4v-1.7
			c0-0.1,0-0.1,0.1-0.2c0,0,0.1-0.1,0.2-0.1S73,20.9,73.1,20.9z M72.4,24.6c0.2-0.2,0.2-0.5,0.2-0.9c0-0.4-0.1-0.7-0.2-0.9
			c-0.2-0.2-0.4-0.3-0.7-0.3s-0.5,0.1-0.7,0.3c-0.2,0.2-0.2,0.5-0.2,0.8c0,0.4,0.1,0.7,0.2,0.9c0.2,0.2,0.4,0.3,0.7,0.3
			S72.2,24.8,72.4,24.6z"/>
		<path d="M73.6,21.4c-0.1-0.1-0.1-0.1-0.1-0.2c0-0.1,0-0.2,0.1-0.2c0.1-0.1,0.1-0.1,0.2-0.1s0.2,0,0.2,0.1c0.1,0.1,0.1,0.1,0.1,0.2
			c0,0.1,0,0.2-0.1,0.2c-0.1,0.1-0.1,0.1-0.2,0.1S73.6,21.5,73.6,21.4z M73.6,25.2c0,0-0.1-0.1-0.1-0.2v-2.6c0-0.1,0-0.1,0.1-0.2
			c0,0,0.1-0.1,0.2-0.1c0.1,0,0.1,0,0.2,0.1c0,0,0.1,0.1,0.1,0.2v2.6c0,0.1,0,0.1-0.1,0.2s-0.1,0.1-0.2,0.1
			C73.7,25.3,73.7,25.3,73.6,25.2z"/>
		<path d="M76.9,23.4v1.7c0,0.1,0,0.1-0.1,0.2c0,0-0.1,0.1-0.2,0.1c-0.1,0-0.1,0-0.2-0.1s-0.1-0.1-0.1-0.2v-0.3
			c-0.1,0.2-0.2,0.3-0.4,0.4c-0.2,0.1-0.4,0.1-0.6,0.1c-0.2,0-0.4,0-0.5-0.1s-0.3-0.2-0.4-0.3c-0.1-0.1-0.1-0.3-0.1-0.5
			c0-0.2,0.1-0.4,0.2-0.5c0.1-0.1,0.3-0.2,0.6-0.3c0.3-0.1,0.6-0.1,1.1-0.1h0.1v-0.2c0-0.2-0.1-0.4-0.2-0.5s-0.3-0.2-0.5-0.2
			c-0.3,0-0.6,0.1-0.9,0.2c-0.1,0.1-0.2,0.1-0.2,0.1c0,0-0.1,0-0.1-0.1c0,0,0-0.1,0-0.1c0-0.1,0-0.1,0.1-0.2c0,0,0.1-0.1,0.2-0.1
			c0.1-0.1,0.3-0.1,0.5-0.2c0.2,0,0.4-0.1,0.6-0.1C76.5,22.2,76.9,22.6,76.9,23.4z M76.2,24.7c0.2-0.2,0.2-0.4,0.2-0.7v-0.2h-0.1
			c-0.4,0-0.6,0-0.8,0c-0.2,0-0.3,0.1-0.4,0.2c-0.1,0.1-0.1,0.2-0.1,0.3c0,0.2,0.1,0.3,0.2,0.4c0.1,0.1,0.3,0.2,0.4,0.2
			C75.8,24.9,76,24.8,76.2,24.7z"/>
		<path d="M79.5,25.2c0,0-0.1-0.1-0.1-0.2v-4c0-0.1,0-0.1,0.1-0.2c0,0,0.1-0.1,0.2-0.1c0.1,0,0.1,0,0.2,0.1c0,0,0.1,0.1,0.1,0.2v4
			c0,0.1,0,0.1-0.1,0.2c0,0-0.1,0.1-0.2,0.1C79.6,25.3,79.6,25.3,79.5,25.2z"/>
		<path d="M82.8,23.4v1.7c0,0.1,0,0.1-0.1,0.2c0,0-0.1,0.1-0.2,0.1c-0.1,0-0.1,0-0.2-0.1s-0.1-0.1-0.1-0.2v-0.3
			c-0.1,0.2-0.2,0.3-0.4,0.4c-0.2,0.1-0.4,0.1-0.6,0.1c-0.2,0-0.4,0-0.5-0.1s-0.3-0.2-0.4-0.3c-0.1-0.1-0.1-0.3-0.1-0.5
			c0-0.2,0.1-0.4,0.2-0.5c0.1-0.1,0.3-0.2,0.6-0.3c0.3-0.1,0.6-0.1,1.1-0.1h0.1v-0.2c0-0.2-0.1-0.4-0.2-0.5s-0.3-0.2-0.5-0.2
			c-0.3,0-0.6,0.1-0.9,0.2c-0.1,0.1-0.2,0.1-0.2,0.1c0,0-0.1,0-0.1-0.1c0,0,0-0.1,0-0.1c0-0.1,0-0.1,0.1-0.2c0,0,0.1-0.1,0.2-0.1
			c0.1-0.1,0.3-0.1,0.5-0.2c0.2,0,0.4-0.1,0.6-0.1C82.4,22.2,82.8,22.6,82.8,23.4z M82,24.7c0.2-0.2,0.2-0.4,0.2-0.7v-0.2h-0.1
			c-0.4,0-0.6,0-0.8,0c-0.2,0-0.3,0.1-0.4,0.2c-0.1,0.1-0.1,0.2-0.1,0.3c0,0.2,0.1,0.3,0.2,0.4c0.1,0.1,0.3,0.2,0.4,0.2
			C81.7,24.9,81.9,24.8,82,24.7z"/>
		<path d="M85.3,22.4c0.2,0.1,0.4,0.3,0.5,0.5c0.1,0.2,0.2,0.5,0.2,0.8c0,0.3-0.1,0.6-0.2,0.8c-0.1,0.2-0.3,0.4-0.5,0.6
			s-0.4,0.2-0.7,0.2c-0.2,0-0.4-0.1-0.6-0.2c-0.2-0.1-0.3-0.3-0.4-0.4v0.3c0,0.1,0,0.1-0.1,0.2c0,0-0.1,0.1-0.2,0.1s-0.1,0-0.2-0.1
			s-0.1-0.1-0.1-0.2v-4c0-0.1,0-0.1,0.1-0.2s0.1-0.1,0.2-0.1s0.1,0,0.2,0.1c0,0,0.1,0.1,0.1,0.2v1.7c0.1-0.2,0.2-0.3,0.4-0.4
			c0.2-0.1,0.4-0.2,0.6-0.2C84.9,22.2,85.1,22.2,85.3,22.4z M85.2,24.6c0.2-0.2,0.2-0.5,0.2-0.9c0-0.4-0.1-0.6-0.2-0.8
			c-0.2-0.2-0.4-0.3-0.7-0.3s-0.5,0.1-0.7,0.3c-0.2,0.2-0.2,0.5-0.2,0.9c0,0.4,0.1,0.7,0.2,0.9c0.2,0.2,0.4,0.3,0.7,0.3
			S85,24.8,85.2,24.6z"/>
		<path d="M86.8,25.3c-0.2,0-0.3-0.1-0.5-0.2c-0.1,0-0.1-0.1-0.2-0.1s0-0.1,0-0.2c0-0.1,0-0.1,0-0.1c0,0,0.1-0.1,0.1-0.1
			c0,0,0.1,0,0.2,0.1c0.1,0.1,0.2,0.1,0.4,0.2c0.1,0,0.3,0.1,0.5,0.1c0.2,0,0.4,0,0.5-0.1s0.2-0.2,0.2-0.3c0-0.1,0-0.2-0.1-0.2
			s-0.1-0.1-0.2-0.1s-0.3-0.1-0.5-0.1c-0.4-0.1-0.6-0.2-0.8-0.3s-0.2-0.3-0.2-0.5c0-0.2,0-0.3,0.1-0.5c0.1-0.1,0.2-0.2,0.4-0.3
			s0.4-0.1,0.6-0.1c0.2,0,0.3,0,0.5,0.1c0.2,0,0.3,0.1,0.4,0.2c0.1,0.1,0.2,0.2,0.2,0.3c0,0.1,0,0.1,0,0.1c0,0-0.1,0.1-0.1,0.1
			c-0.1,0-0.1,0-0.2-0.1c-0.1-0.1-0.2-0.1-0.3-0.2c-0.1,0-0.2-0.1-0.4-0.1c-0.2,0-0.4,0-0.5,0.1c-0.1,0.1-0.2,0.2-0.2,0.4
			c0,0.1,0,0.2,0.1,0.2c0,0.1,0.1,0.1,0.2,0.1c0.1,0,0.2,0.1,0.4,0.1c0.3,0.1,0.5,0.1,0.7,0.2c0.2,0.1,0.3,0.2,0.3,0.3
			c0.1,0.1,0.1,0.2,0.1,0.4c0,0.3-0.1,0.5-0.3,0.6c-0.2,0.2-0.5,0.2-0.9,0.2C87.2,25.3,87,25.3,86.8,25.3z"/>
	</g>
</g>
<g>
</g>
<g>
</g>
<g>
</g>
<g>
</g>
<g>
</g>
</svg>
